<?xml version="1.0" encoding="UTF-8" standalone="no"?>
<!-- Created with Inkscape (http://www.inkscape.org/) -->

<svg
   xmlns:dc="http://purl.org/dc/elements/1.1/"
   xmlns:cc="http://creativecommons.org/ns#"
   xmlns:rdf="http://www.w3.org/1999/02/22-rdf-syntax-ns#"
   xmlns:svg="http://www.w3.org/2000/svg"
   xmlns="http://www.w3.org/2000/svg"
   xmlns:sodipodi="http://sodipodi.sourceforge.net/DTD/sodipodi-0.dtd"
   xmlns:inkscape="http://www.inkscape.org/namespaces/inkscape"
   width="132.25809mm"
   height="99.328918mm"
   viewBox="0 0 132.25809 99.328918"
   version="1.1"
   id="svg30"
   inkscape:version="0.92.5 (2060ec1f9f, 2020-04-08)"
   sodipodi:docname="logo-blanco.svg">
  <defs
     id="defs24" />
  <sodipodi:namedview
     id="base"
     pagecolor="#ffffff"
     bordercolor="#666666"
     borderopacity="1.0"
     inkscape:pageopacity="0.0"
     inkscape:pageshadow="2"
     inkscape:zoom="0.35"
     inkscape:cx="-38.634893"
     inkscape:cy="319.13596"
     inkscape:document-units="mm"
     inkscape:current-layer="layer1"
     showgrid="false"
     inkscape:window-width="1366"
     inkscape:window-height="716"
     inkscape:window-x="0"
     inkscape:window-y="0"
     inkscape:window-maximized="1" />
  <metadata
     id="metadata27">
    <rdf:RDF>
      <cc:Work
         rdf:about="">
        <dc:format>image/svg+xml</dc:format>
        <dc:type
           rdf:resource="http://purl.org/dc/dcmitype/StillImage" />
        <dc:title />
      </cc:Work>
    </rdf:RDF>
  </metadata>
  <g
     inkscape:label="Capa 1"
     inkscape:groupmode="layer"
     id="layer1"
     transform="translate(224.12309,-133.94247)">
    <path
       style="color:#000000;font-style:normal;font-variant:normal;font-weight:normal;font-stretch:normal;font-size:medium;line-height:normal;font-family:sans-serif;font-variant-ligatures:normal;font-variant-position:normal;font-variant-caps:normal;font-variant-numeric:normal;font-variant-alternates:normal;font-feature-settings:normal;text-indent:0;text-align:start;text-decoration:none;text-decoration-line:none;text-decoration-style:solid;text-decoration-color:#000000;letter-spacing:normal;word-spacing:normal;text-transform:none;writing-mode:lr-tb;direction:ltr;text-orientation:mixed;dominant-baseline:auto;baseline-shift:baseline;text-anchor:start;white-space:normal;shape-padding:0;clip-rule:nonzero;display:inline;overflow:visible;visibility:visible;opacity:1;isolation:auto;mix-blend-mode:normal;color-interpolation:sRGB;color-interpolation-filters:linearRGB;solid-color:#000000;solid-opacity:1;vector-effect:none;fill:#f7c74d;fill-opacity:0.98233217;fill-rule:nonzero;stroke:none;stroke-width:0.80000001;stroke-linecap:round;stroke-linejoin:miter;stroke-miterlimit:4;stroke-dasharray:none;stroke-dashoffset:0;stroke-opacity:1;color-rendering:auto;image-rendering:auto;shape-rendering:auto;text-rendering:auto;enable-background:accumulate"
       d="m -196.14494,133.94247 v 0.29301 0.40049 75.90441 h 38.15011 38.15221 v -38.15219 -38.15271 -0.29301 l -0.50747,0.29301 h -75.28741 z m 1.89444,1.094 h 28.45203 c -5.85111,1.21697 -11.2122,3.77331 -15.74581,7.33598 z m 36.25567,0 c 8.58787,0 16.49606,2.8979 22.80431,7.76696 l -22.80431,13.16664 -22.80377,-13.16664 c 6.30822,-4.86901 14.21595,-7.76696 22.80377,-7.76696 z m 7.80418,0 h 28.45305 l -12.70672,7.3365 c -4.53403,-3.5629 -9.89486,-6.11948 -15.74633,-7.3365 z m -45.15591,0.293 13.13307,7.58248 c -6.59199,5.42348 -11.33287,13.01415 -13.13307,21.68136 z m 74.70347,0.002 v 29.25248 c -1.80182,-8.6631 -6.54228,-16.25005 -13.13202,-21.67155 z m -60.83195,8.00674 23.48021,13.55576 23.48127,-13.55524 c 8.36414,6.76867 13.7436,17.07612 13.86531,28.6489 h -74.69312 c 0.1217,-11.57304 5.50187,-21.88076 13.86633,-28.64942 z m -13.86633,29.44988 h 36.94813 v 36.94607 c -20.31621,-0.21255 -36.73477,-16.63006 -36.94813,-36.94607 z m 37.74704,0 h 36.94608 c -0.21336,20.31533 -16.63084,36.73243 -36.94608,36.94607 z m -37.75223,7.39438 c 3.07589,14.80911 14.73885,26.47625 29.54602,29.55686 h -29.54602 z m 74.70347,0.009 v 29.54755 h -29.5455 c 14.80439,-3.07995 26.46633,-14.74286 29.5455,-29.54753 z m -101.86149,38.41628 -1.61851,13.99708 h 1.61851 l 0.99062,-9.00772 4.34187,7.77006 4.34186,-7.77006 0.99013,9.00772 h 1.61901 l -1.61901,-13.99708 -5.33199,9.65522 z m 19.23449,0 v 13.99708 h 1.61851 v -9.92142 l 10.0929,10.58798 v -13.99708 h -1.61848 v 9.92188 z m 84.42016,0 v 13.99708 h 3.08509 v -7.46524 l 9.217,8.1318 v -13.99708 h -3.1228 v 7.46518 z M -169.0298,218.97 c -1.06646,0 -2.05037,0.16497 -2.95178,0.49506 -0.88868,0.31739 -1.6696,0.78712 -2.34248,1.40922 -0.67287,0.60939 -1.19349,1.34533 -1.56165,2.20865 -0.3555,0.85062 -0.53333,1.80292 -0.5333,2.85667 -3e-5,1.04105 0.17137,1.99979 0.51417,2.87579 0.35549,0.87602 0.86375,1.63123 1.52394,2.26601 0.66017,0.6221 1.43415,1.10468 2.32286,1.44746 0.88868,0.33009 1.86029,0.49506 2.91401,0.49506 1.12993,0 2.1326,-0.19658 3.00861,-0.59014 0.87601,-0.39357 1.60605,-0.94578 2.19006,-1.65675 0.58399,-0.72366 1.01571,-1.54902 1.295,-2.47582 0.27932,-0.93948 0.39341,-1.93625 0.34261,-2.99 h -6.74118 v 2.47582 h 3.52329 c -0.11424,0.34278 -0.26688,0.6663 -0.45733,0.971 -0.19042,0.29201 -0.43145,0.55231 -0.72348,0.78083 -0.29199,0.21583 -0.62835,0.38722 -1.00922,0.51418 -0.38087,0.11426 -0.81899,0.17157 -1.31413,0.17157 -0.58402,0 -1.1239,-0.0953 -1.61904,-0.28577 -0.49512,-0.20313 -0.92631,-0.48862 -1.29448,-0.8568 -0.35549,-0.38087 -0.63508,-0.83184 -0.8382,-1.35237 -0.19044,-0.53322 -0.28577,-1.12989 -0.28577,-1.79007 0,-0.66018 0.10176,-1.244 0.3049,-1.75183 0.21582,-0.50783 0.50774,-0.94595 0.87591,-1.31413 0.38086,-0.36818 0.81256,-0.64133 1.295,-0.81907 0.48244,-0.19044 1.00306,-0.28526 1.56168,-0.28526 0.78713,0 1.42824,0.17782 1.92338,0.5333 0.49515,0.35548 0.89522,0.79309 1.19994,1.31362 l 2.89439,-1.48518 c -0.41897,-0.6221 -0.91388,-1.16788 -1.48519,-1.63763 -0.57129,-0.46974 -1.23812,-0.83823 -1.99985,-1.10484 -0.74907,-0.27931 -1.59319,-0.41858 -2.53267,-0.41858 z m 27.61329,0 c -1.01566,0 -1.96154,0.16497 -2.83755,0.49506 -0.87601,0.33009 -1.64407,0.80624 -2.30426,1.42834 -0.64746,0.62209 -1.14882,1.36445 -1.50429,2.22777 -0.35549,0.85061 -0.53329,1.79007 -0.53329,2.81843 0,1.02836 0.17137,1.97424 0.51416,2.83755 0.3428,0.86332 0.8377,1.61262 1.48519,2.24741 0.64749,0.63479 1.40912,1.1297 2.28513,1.48518 0.876,0.34279 1.84118,0.51418 2.89491,0.51418 1.04105,0 1.99337,-0.17139 2.85668,-0.51418 0.87601,-0.35548 1.63764,-0.85039 2.28512,-1.48518 0.64749,-0.63479 1.14883,-1.38409 1.50432,-2.24741 0.35547,-0.86331 0.53329,-1.80919 0.53329,-2.83755 0,-1.02836 -0.18425,-1.96782 -0.55242,-2.81843 -0.36817,-0.85062 -0.87593,-1.58708 -1.52342,-2.20917 -0.63479,-0.63479 -1.39001,-1.11685 -2.26602,-1.44694 -0.86331,-0.33009 -1.8092,-0.49506 -2.83755,-0.49506 z m -66.51945,0.30437 v 13.33046 h 1.61851 v -13.33046 z m 19.42465,0 v 13.33046 h 1.61851 2.38021 c 0.97759,0 1.87309,-0.15855 2.68563,-0.47594 0.81254,-0.3174 1.51045,-0.76785 2.09444,-1.35186 0.59672,-0.5967 1.06,-1.30155 1.3901,-2.11408 0.33009,-0.82522 0.49559,-1.73308 0.49559,-2.72335 0,-0.99027 -0.1655,-1.89169 -0.49559,-2.70423 -0.3301,-0.82522 -0.79338,-1.52956 -1.3901,-2.11356 -0.58399,-0.59671 -1.2819,-1.0541 -2.09444,-1.3715 -0.81254,-0.31739 -1.70804,-0.47594 -2.68563,-0.47594 h -2.38021 z m 28.35589,0 v 13.33046 h 3.19929 v -4.58939 h 1.00926 l 2.83755,4.58939 h 3.78941 l -3.45715,-5.00487 c 0.10827,-0.0425 0.21373,-0.0879 0.31523,-0.13694 0.77443,-0.38087 1.35826,-0.90096 1.75183,-1.56114 0.39357,-0.66019 0.59065,-1.41592 0.59065,-2.26653 0,-0.86332 -0.19708,-1.61853 -0.59065,-2.26601 -0.39357,-0.66019 -0.9774,-1.17437 -1.75183,-1.54255 -0.76174,-0.36818 -1.71405,-0.55242 -2.85666,-0.55242 h -1.63764 z m 27.86084,0 v 8.95036 c 0,0.83792 0.13338,1.56795 0.39997,2.19005 0.26662,0.6094 0.64101,1.12358 1.12345,1.54254 0.49514,0.40626 1.06661,0.7046 1.7141,0.89503 0.64749,0.20314 1.34541,0.3049 2.09444,0.3049 0.74907,0 1.44749,-0.10176 2.09498,-0.3049 0.66018,-0.19043 1.23166,-0.48877 1.7141,-0.89503 0.49514,-0.41896 0.87596,-0.93314 1.14258,-1.54254 0.27929,-0.6221 0.41857,-1.35213 0.41857,-2.19005 v -8.95036 h -3.21842 v 8.72195 c 0,0.45705 -0.0825,0.85714 -0.24752,1.19993 -0.16505,0.34279 -0.40608,0.60952 -0.72348,0.79995 -0.30469,0.17774 -0.69194,0.26665 -1.16168,0.26665 -0.48244,0 -0.88254,-0.0889 -1.19993,-0.26665 -0.3047,-0.19043 -0.5393,-0.45716 -0.70435,-0.79995 -0.16505,-0.34279 -0.24752,-0.74288 -0.24752,-1.19993 v -8.72195 z m 28.54606,0 v 13.33046 h 3.33261 1.409217 c 1.09183,0 2.07574,-0.15212 2.95175,-0.45683 0.87601,-0.31739 1.62533,-0.76194 2.24742,-1.33325 0.63479,-0.584 1.11736,-1.28192 1.44746,-2.09444 0.33009,-0.82523 0.49506,-1.75235 0.49506,-2.78071 0,-1.02836 -0.16497,-1.94855 -0.49506,-2.76107 -0.3301,-0.82523 -0.81267,-1.52366 -1.44746,-2.09497 -0.62209,-0.584 -1.37141,-1.02855 -2.24742,-1.33325 -0.87601,-0.31739 -1.85992,-0.47594 -2.95175,-0.47594 h -1.409217 z m -83.14428,1.61903 h 2.38021 c 0.74907,-1e-5 1.43463,0.12051 2.05672,0.36173 0.62211,0.22853 1.15556,0.5649 1.5999,1.00924 0.44437,0.43166 0.78714,0.95869 1.02836,1.58078 0.24122,0.6221 0.36174,1.32001 0.36174,2.09445 0,0.77444 -0.12052,1.47287 -0.36174,2.09496 -0.24122,0.6221 -0.58399,1.15504 -1.02836,1.59939 -0.44434,0.43166 -0.97779,0.76854 -1.5999,1.00976 -0.62209,0.22852 -1.30765,0.34261 -2.05672,0.34261 h -2.38021 z m 45.47629,1.02836 c 0.57131,0 1.0855,0.10124 1.54255,0.30437 0.46974,0.20313 0.86931,0.48271 1.1994,0.83819 0.3301,0.35548 0.57807,0.77433 0.74311,1.25677 0.16505,0.48244 0.24752,1.02181 0.24752,1.61851 0,0.58401 -0.0889,1.12389 -0.26665,1.61902 -0.17772,0.49514 -0.43161,0.92041 -0.76171,1.27589 -0.33009,0.34279 -0.72374,0.61543 -1.1808,0.81856 -0.45705,0.20313 -0.97124,0.30489 -1.54253,0.30489 -0.55861,0 -1.0728,-0.10176 -1.54254,-0.30489 -0.45704,-0.20313 -0.85715,-0.48219 -1.19994,-0.83768 -0.33009,-0.35548 -0.58396,-0.77433 -0.76171,-1.25677 -0.17775,-0.49513 -0.26665,-1.03501 -0.26665,-1.61902 0,-0.5967 0.0889,-1.13607 0.26665,-1.61851 0.17775,-0.49513 0.43162,-0.91398 0.76171,-1.25677 0.34279,-0.35548 0.7429,-0.63506 1.19994,-0.83819 0.46974,-0.20313 0.99033,-0.30437 1.56165,-0.30437 z m -15.53962,0.0951 h 1.40923 c 0.43164,0 0.80605,0.0696 1.12344,0.20928 0.3174,0.13966 0.55251,0.33675 0.70485,0.59067 0.16505,0.25391 0.24755,0.56458 0.24755,0.93276 0,0.36818 -0.0825,0.68579 -0.24755,0.95239 -0.15234,0.25392 -0.38745,0.45049 -0.70485,0.59015 -0.31739,0.12695 -0.6918,0.19068 -1.12344,0.19068 h -1.40923 z m 56.54022,0.13332 h 1.314127 c 0.50784,0 0.99685,0.0632 1.46659,0.19017 0.46974,0.12696 0.88215,0.33638 1.23764,0.62838 0.36817,0.29201 0.66008,0.68567 0.87593,1.18081 0.21582,0.48244 0.32401,1.07911 0.32401,1.79007 0,0.71097 -0.10819,1.31406 -0.32401,1.8092 -0.21585,0.48244 -0.50776,0.86968 -0.87593,1.16168 -0.35549,0.29201 -0.7679,0.50143 -1.23764,0.62839 -0.46974,0.12696 -0.95875,0.19068 -1.46659,0.19068 h -1.314127 z"
       id="rect826"
       inkscape:connector-curvature="0" />
  </g>
</svg>
