<?xml version="1.0" encoding="UTF-8" standalone="no"?>
<!-- Created with Inkscape (http://www.inkscape.org/) -->

<svg
   xmlns:dc="http://purl.org/dc/elements/1.1/"
   xmlns:cc="http://creativecommons.org/ns#"
   xmlns:rdf="http://www.w3.org/1999/02/22-rdf-syntax-ns#"
   xmlns:svg="http://www.w3.org/2000/svg"
   xmlns="http://www.w3.org/2000/svg"
   xmlns:sodipodi="http://sodipodi.sourceforge.net/DTD/sodipodi-0.dtd"
   xmlns:inkscape="http://www.inkscape.org/namespaces/inkscape"
   width="813.29803mm"
   height="98.818771mm"
   viewBox="0 0 813.29805 98.818771"
   version="1.1"
   id="svg30"
   inkscape:version="0.92.5 (2060ec1f9f, 2020-04-08)"
   sodipodi:docname="logo-h.svg">
  <defs
     id="defs24" />
  <sodipodi:namedview
     id="base"
     pagecolor="#ffffff"
     bordercolor="#666666"
     borderopacity="1.0"
     inkscape:pageopacity="0.0"
     inkscape:pageshadow="2"
     inkscape:zoom="0.175"
     inkscape:cx="1480.8057"
     inkscape:cy="16.943946"
     inkscape:document-units="mm"
     inkscape:current-layer="layer1"
     showgrid="false"
     inkscape:window-width="1366"
     inkscape:window-height="716"
     inkscape:window-x="0"
     inkscape:window-y="0"
     inkscape:window-maximized="1"
     inkscape:snap-bbox="true"
     inkscape:bbox-paths="true"
     inkscape:bbox-nodes="true"
     inkscape:snap-bbox-edge-midpoints="true"
     showguides="false"
     inkscape:guide-bbox="true"
     inkscape:object-paths="true"
     inkscape:snap-intersection-paths="true"
     inkscape:snap-smooth-nodes="true"
     inkscape:snap-midpoints="true">
    <sodipodi:guide
       position="15.127542,87.73179"
       orientation="0,1"
       id="guide1444"
       inkscape:locked="false" />
  </sodipodi:namedview>
  <metadata
     id="metadata27">
    <rdf:RDF>
      <cc:Work
         rdf:about="">
        <dc:format>image/svg+xml</dc:format>
        <dc:type
           rdf:resource="http://purl.org/dc/dcmitype/StillImage" />
        <dc:title></dc:title>
      </cc:Work>
    </rdf:RDF>
  </metadata>
  <g
     inkscape:label="Capa 1"
     inkscape:groupmode="layer"
     id="layer1"
     transform="translate(-118.79913,-136.01263)">
    <path
       style="fill:#f8c74c;fill-opacity:0.94509804;stroke:none;stroke-width:3.18751144;stroke-miterlimit:4;stroke-dasharray:none;stroke-opacity:0.94509804"
       d="M 1296.084,7.8242188 V 381.3125 h 380.7168 V 7.8242188 Z m 44.2754,41.9042972 h 4.3105 283.5391 4.3183 V 51.617188 195.81445 341.90234 H 1486.4395 1340.3594 V 53.130859 51.617188 50.509766 Z m 16.1074,6.804687 40.873,23.599609 c 13.4498,-10.375746 28.7726,-18.393952 45.3555,-23.599609 z m 129.9727,0 c -30.9862,0 -59.4594,10.269411 -82.5879,27.365235 l 82.5879,47.679682 82.5878,-47.679682 c -23.1287,-17.095975 -51.6014,-27.365235 -82.5878,-27.365235 z m 43.746,0 c 16.5835,5.206035 31.9028,13.223259 45.3536,23.599609 l 40.8808,-23.599609 z m -183.0273,2.488281 v 94.480466 c 8.2147,-27.02789 23.6818,-50.81458 44.6387,-68.703122 z m 278.5625,0.01563 -44.6445,25.761719 c 20.9533,17.882457 36.4253,41.655797 44.6445,68.673827 z M 1397.998,88.378906 c -30.1636,24.861884 -49.5692,62.116544 -50.5898,104.033204 h 278.0547 c -1.0207,-41.9195 -20.4208,-79.17132 -50.5879,-104.033204 l -88.4355,51.054684 z m -50.6191,110.839844 c 1.8049,74.21673 61.4465,133.84854 135.6641,135.65039 V 199.21875 Z m 142.4629,0 v 135.65039 c 74.214,-1.80578 133.8456,-61.43615 135.6504,-135.65039 z m -142.6836,39.5 v 96.37891 h 96.3633 c -46.0408,-14.19107 -82.1779,-50.33497 -96.3633,-96.37891 z m 278.5625,0.0156 c -14.1876,46.02714 -50.3101,82.1605 -96.334,96.35546 h 96.334 z"
       transform="matrix(0.26458333,0,0,0.26458333,-224.12309,133.94247)"
       id="rect1438"
       inkscape:connector-curvature="0" />
    <path
       inkscape:connector-curvature="0"
       id="path893"
       d="m 249.67929,147.12286 -8.45456,73.11609 h 8.45456 l 5.17467,-47.05334 22.68049,40.58822 22.68044,-40.58822 5.17211,47.05334 h 8.45717 l -8.45717,-73.11609 -27.85255,50.43569 z m 100.47461,0 v 73.11609 h 8.45456 v -51.82619 l 52.72196,55.3081 v -73.11609 h -8.4544 v 51.82859 z m 440.98296,0 v 73.11609 h 16.11548 v -38.99592 l 48.14656,42.47783 v -73.11609 h -16.31247 v 38.99561 z m -262.12303,1.89228 c -5.57084,0 -10.71046,0.86173 -15.41912,2.58602 -4.64217,1.65795 -8.72144,4.11166 -12.23634,7.36132 -3.51485,3.18323 -6.2344,7.02755 -8.15755,11.53724 -1.85701,4.44335 -2.78593,9.41783 -2.78578,14.9223 -1.5e-4,5.43812 0.89518,10.44624 2.68586,15.02217 1.85696,4.57603 4.51194,8.521 7.96055,11.83691 3.44851,3.24961 7.49153,5.77044 12.13386,7.56102 4.64217,1.72429 9.71754,2.58602 15.22182,2.58602 5.90238,0 11.14,-1.02685 15.71598,-3.08267 4.57599,-2.05589 8.38948,-4.94043 11.44015,-8.65431 3.05057,-3.78018 5.30573,-8.09158 6.76465,-12.93286 1.45908,-4.90757 2.05505,-10.11435 1.78969,-15.61881 h -35.2137 v 12.93291 h 18.4045 c -0.59675,1.79053 -1.39409,3.4805 -2.38894,5.07217 -0.99469,1.52537 -2.25375,2.88506 -3.77922,4.0788 -1.52526,1.12739 -3.28229,2.02271 -5.27183,2.68589 -1.98954,0.59684 -4.27813,0.89626 -6.86458,0.89626 -3.05073,0 -5.87088,-0.49781 -8.45733,-1.49279 -2.58634,-1.06111 -4.83874,-2.55238 -6.76193,-4.47563 -1.85697,-1.98954 -3.31745,-4.34526 -4.37849,-7.06437 -0.99479,-2.78535 -1.49276,-5.90213 -1.49276,-9.35071 0,-3.44858 0.53156,-6.49824 1.5927,-9.15097 1.12737,-2.65277 2.65226,-4.94136 4.57546,-6.86462 1.98949,-1.9232 4.24454,-3.35006 6.76465,-4.27855 2.52011,-0.99477 5.23965,-1.49006 8.1577,-1.49006 4.11171,0 7.46065,0.92885 10.0471,2.78576 2.5865,1.85692 4.67633,4.14284 6.26809,6.86191 l 15.11933,-7.75806 c -2.18856,-3.24967 -4.7738,-6.10062 -7.75814,-8.55443 -2.98423,-2.45382 -6.46753,-4.37864 -10.44655,-5.77134 -3.9129,-1.45904 -8.3223,-2.18652 -13.22983,-2.18652 z m 144.24268,0 c -5.30547,0 -10.24643,0.86173 -14.82242,2.58602 -4.57598,1.72429 -8.58807,4.21153 -12.03669,7.4612 -3.38211,3.24956 -6.00105,7.12742 -7.85791,11.63711 -1.85696,4.4433 -2.78573,9.35071 -2.78573,14.72255 0,5.37183 0.89518,10.31278 2.6858,14.82242 1.79067,4.50969 4.37587,8.4238 7.75814,11.7397 3.38227,3.31595 7.36078,5.90119 11.93676,7.75811 4.57594,1.79063 9.61772,2.68589 15.12205,2.68589 5.43811,0 10.41271,-0.89526 14.92235,-2.68589 4.57599,-1.85692 8.55449,-4.44216 11.93672,-7.75811 3.38227,-3.3159 6.0011,-7.23001 7.85807,-11.7397 1.85685,-4.50964 2.78572,-9.45059 2.78572,-14.82242 0,-5.37184 -0.96246,-10.27925 -2.88565,-14.72255 -1.9232,-4.44336 -4.57557,-8.29039 -7.95785,-11.53995 -3.31593,-3.31596 -7.26095,-5.83407 -11.83693,-7.55836 -4.50965,-1.72429 -9.45067,-2.58602 -14.82243,-2.58602 z m -347.47558,1.58994 v 69.63387 h 8.45457 v -69.63387 z m 101.46794,0 v 69.63387 h 8.45456 12.43343 c 5.10661,0 9.7844,-0.82819 14.02884,-2.48614 4.24444,-1.65801 7.89009,-4.011 10.94067,-7.06165 3.11706,-3.117 5.53708,-6.79886 7.26142,-11.04325 1.72428,-4.31067 2.58879,-9.05307 2.58879,-14.22589 0,-5.17282 -0.86451,-9.88158 -2.58879,-14.12602 -1.72434,-4.31068 -4.14436,-7.98988 -7.26142,-11.04053 -3.05058,-3.11699 -6.69623,-5.50624 -10.94067,-7.16424 -4.24444,-1.65796 -8.92223,-2.48615 -14.02884,-2.48615 h -12.43343 z m 148.12178,0 v 69.63387 h 16.71203 v -23.97344 h 5.27205 l 14.82241,23.97344 h 19.79463 l -18.05901,-26.14377 c 0.56557,-0.222 1.11646,-0.45915 1.64666,-0.71531 4.04536,-1.98954 7.0951,-4.7063 9.15098,-8.15489 2.05588,-3.44863 3.08536,-7.39632 3.08536,-11.83962 0,-4.50969 -1.02948,-8.45467 -3.08536,-11.83686 -2.05588,-3.44863 -5.10562,-6.13452 -9.15098,-8.05778 -3.97908,-1.92325 -8.95363,-2.88564 -14.92225,-2.88564 h -8.55449 z m 145.53581,0 v 46.75372 c 0,4.37701 0.69673,8.19041 2.08931,11.44008 1.39273,3.18327 3.34842,5.86922 5.86853,8.05773 2.58644,2.12216 5.57161,3.68061 8.95389,4.67533 3.38227,1.06111 7.02797,1.59271 10.94066,1.59271 3.91289,0 7.56121,-0.5316 10.94348,-1.59271 3.44856,-0.99472 6.43378,-2.55317 8.95389,-4.67533 2.58645,-2.18851 4.57572,-4.87446 5.96846,-8.05773 1.45892,-3.24967 2.18647,-7.06307 2.18647,-11.44008 v -46.75372 h -16.81196 v 45.56056 c 0,2.38747 -0.43094,4.47741 -1.29296,6.26804 -0.86217,1.79063 -2.12123,3.1839 -3.77922,4.17867 -1.5916,0.92844 -3.61447,1.39291 -6.06823,1.39291 -2.52011,0 -4.6101,-0.46437 -6.26804,-1.39291 -1.59165,-0.99477 -2.81712,-2.38804 -3.67929,-4.17867 -0.86217,-1.79063 -1.29296,-3.88057 -1.29296,-6.26804 v -45.56056 z m 149.11516,0 v 69.63387 h 17.40845 7.36129 c 5.70335,0 10.84298,-0.7946 15.41896,-2.38632 4.57599,-1.65795 8.49019,-3.98013 11.73978,-6.96444 3.31593,-3.0506 5.83672,-6.69632 7.56105,-10.94066 1.72428,-4.31072 2.58603,-9.15368 2.58603,-14.52551 0,-5.37184 -0.86175,-10.17859 -2.58603,-14.42293 -1.72433,-4.31073 -4.24512,-7.95911 -7.56105,-10.94342 -3.24959,-3.0506 -7.16379,-5.37278 -11.73978,-6.96444 -4.57598,-1.65796 -9.71561,-2.48615 -15.41896,-2.48615 h -7.36129 z m -434.31819,8.45728 h 12.43343 c 3.9129,-5e-5 7.49404,0.62949 10.74363,1.88951 3.24969,1.19379 6.03626,2.95088 8.35734,5.27196 2.32124,2.25485 4.11176,5.00786 5.37181,8.25748 1.26006,3.24962 1.88961,6.89528 1.88961,10.94071 0,4.04542 -0.62955,7.6938 -1.88961,10.94337 -1.26005,3.24967 -3.05057,6.03355 -5.37181,8.35468 -2.32108,2.25485 -5.10765,4.01461 -8.35734,5.27468 -3.24959,1.19369 -6.83073,1.78964 -10.74363,1.78964 h -12.43343 z m 237.55308,5.37178 c 2.98434,0 5.6703,0.52884 8.05778,1.58995 2.45376,1.06105 4.54098,2.5215 6.26526,4.37842 1.72434,1.85692 3.01965,4.04485 3.88176,6.56494 0.86217,2.5201 1.29297,5.33763 1.29297,8.45457 0,3.05065 -0.46439,5.87084 -1.39289,8.45722 -0.92836,2.58644 -2.25459,4.80791 -3.97893,6.66482 -1.72428,1.79063 -3.78057,3.21483 -6.1681,4.27589 -2.38748,1.06111 -5.07344,1.59266 -8.05767,1.59266 -2.91799,0 -5.60395,-0.53155 -8.05772,-1.59266 -2.38742,-1.06106 -4.47747,-2.51879 -6.26809,-4.37576 -1.72428,-1.85692 -3.05041,-4.04485 -3.97892,-6.56495 -0.92851,-2.58638 -1.39289,-5.40657 -1.39289,-8.45722 0,-3.11694 0.46438,-5.93447 1.39289,-8.45457 0.92851,-2.58638 2.25464,-4.77431 3.97892,-6.56494 1.79062,-1.85692 3.88067,-3.31737 6.26809,-4.37842 2.45377,-1.06111 5.17316,-1.58995 8.15754,-1.58995 z m -81.17383,0.49676 h 7.36136 c 2.25474,0 4.21053,0.36356 5.86847,1.09324 1.658,0.72952 2.88613,1.75908 3.6819,3.08544 0.86218,1.32636 1.29313,2.94921 1.29313,4.87246 0,1.92326 -0.43094,3.58231 -1.29313,4.97496 -0.79577,1.32641 -2.0239,2.3532 -3.6819,3.08272 -1.65794,0.66318 -3.61373,0.99608 -5.86847,0.99608 h -7.36136 z m 295.34739,0.69646 h 6.86456 c 2.6528,0 5.20722,0.33012 7.66099,0.99336 2.45376,0.66318 4.60806,1.75714 6.46502,3.28247 1.9232,1.52533 3.44804,3.58168 4.57557,6.16817 1.12737,2.52009 1.69252,5.63688 1.69252,9.35071 0,3.71388 -0.56515,6.8642 -1.69252,9.45064 -1.12753,2.52015 -2.65237,4.54296 -4.57557,6.06824 -1.85696,1.52538 -4.01126,2.61934 -6.46502,3.28252 -2.45377,0.66318 -5.00819,0.99603 -7.66099,0.99603 h -6.86456 z"
       style="color:#000000;font-style:normal;font-variant:normal;font-weight:normal;font-stretch:normal;font-size:medium;line-height:normal;font-family:sans-serif;font-variant-ligatures:normal;font-variant-position:normal;font-variant-caps:normal;font-variant-numeric:normal;font-variant-alternates:normal;font-feature-settings:normal;text-indent:0;text-align:start;text-decoration:none;text-decoration-line:none;text-decoration-style:solid;text-decoration-color:#000000;letter-spacing:normal;word-spacing:normal;text-transform:none;writing-mode:lr-tb;direction:ltr;text-orientation:mixed;dominant-baseline:auto;baseline-shift:baseline;text-anchor:start;white-space:normal;shape-padding:0;clip-rule:nonzero;display:inline;overflow:visible;visibility:visible;opacity:1;isolation:auto;mix-blend-mode:normal;color-interpolation:sRGB;color-interpolation-filters:linearRGB;solid-color:#000000;solid-opacity:1;vector-effect:none;fill:#f7c74d;fill-opacity:0.94385962;fill-rule:nonzero;stroke:none;stroke-width:4.17893553;stroke-linecap:round;stroke-linejoin:miter;stroke-miterlimit:4;stroke-dasharray:none;stroke-dashoffset:0;stroke-opacity:1;color-rendering:auto;image-rendering:auto;shape-rendering:auto;text-rendering:auto;enable-background:accumulate"
       sodipodi:nodetypes="cccccccccccccccccccccccccccccscccccccsccccccccccscccscccscccccsssccscscscccscccsccccccccscccscccsccccccccccccsccscccscccscccsccsccscsscccccscccscccscccccccscccsccscccscccscccscccscsccsccscccscccsccsscc" />
  </g>
</svg>
